# xmcd
#
# Track frame offsets:
#	150
#	17477
#	38567
#	57870
#	77735
#	93197
#	108090
#	126705
#	143287
#	162737
#	180102
#	194582
#	211630
#	229432
#	245415
#
# Disc length: 3547 seconds
#
# Revision: 0
# Processed by: cddbd v1.5.2PL0 Copyright (c) Steve Scherf et al.
# Submitted via: audiograbber 1.83.01
#
DISCID=bc0dd90f
DTITLE=Sound Choice - SC8409
DYEAR=1900
DGENRE=
TTITLE0=Twain, Shania - Love Gets Me Every Time
TTITLE1=McCann, Lila - I Wanna Fall In Love
TTITLE2=Lawrence, Tracy - The Coast Is Clear
TTITLE3=Anderson, John - Small Town
TTITLE4=McCready, Mindy - What If I Do
TTITLE5=Lawrence, Tracy - While You Sleep
TTITLE6=Austin, Sherrie - One Solitary Year
TTITLE7=McCoy, Neal - If You Can't Be Good (Be Good At It)
TTITLE8=Rimes, Leann - On The Side Of Angels
TTITLE9=Brandt, Paul - A Little In Love
TTITLE10=Trevino, Rick - See Rock City
TTITLE11=Montgomery, John Michael - Angel In My Eyes
TTITLE12=Alabama - Of Course I'm Alright
TTITLE13=Judd, Wynonna - When Love Starts Talkin'
TTITLE14=Jackson, Alan - Between The Devil And Me
EXTD=
EXTT0=
EXTT1=
EXTT2=
EXTT3=
EXTT4=
EXTT5=
EXTT6=
EXTT7=
EXTT8=
EXTT9=
EXTT10=
EXTT11=
EXTT12=
EXTT13=
EXTT14=
PLAYORDER=
